<svg viewBox="0 0 1440 320" xmlns="http://www.w3.org/2000/svg" preserveAspectRatio="none">
  <path fill="#0077b6" fill-opacity="1" d="M0,32L60,69.3C120,107,240,181,360,202.7C480,224,600,192,720,154.7C840,117,960,75,1080,64C1200,53,1320,75,1380,85.3L1440,96L1440,320L1380,320C1320,320,1200,320,1080,320C960,320,840,320,720,320C600,320,480,320,360,320C240,320,120,320,60,320L0,320Z"></path>
  <path fill="#00b4d8" fill-opacity="0.7" d="M0,160L60,165.3C120,171,240,181,360,165.3C480,149,600,107,720,101.3C840,96,960,128,1080,149.3C1200,171,1320,181,1380,186.7L1440,192L1440,320L1380,320C1320,320,1200,320,1080,320C960,320,840,320,720,320C600,320,480,320,360,320C240,320,120,320,60,320L0,320Z"></path>
  <path fill="#fb8500" fill-opacity="0.5" d="M0,224L60,208C120,192,240,160,360,144C480,128,600,128,720,154.7C840,181,960,235,1080,240C1200,245,1320,203,1380,181.3L1440,160L1440,320L1380,320C1320,320,1200,320,1080,320C960,320,840,320,720,320C600,320,480,320,360,320C240,320,120,320,60,320L0,320Z"></path>
</svg>
